<svg xmlns="http://www.w3.org/2000/svg" version="1.1" xmlns:xlink="http://www.w3.org/1999/xlink" xmlns:svgjs="http://svgjs.dev/svgjs" viewBox="0 0 2400 800"><defs><linearGradient x1="50%" y1="0%" x2="50%" y2="100%" id="oooscillate-grad"><stop stop-color="hsl(353, 98%, 41%)" stop-opacity="1" offset="0%"></stop><stop stop-color="hsl(353, 98%, 41%)" stop-opacity="1" offset="100%"></stop></linearGradient></defs><g stroke-width="2" stroke="url(#oooscillate-grad)" fill="none" stroke-linecap="round"><path d="M 0 702 Q 600 -100 1200 400 Q 1800 900 2400 702" opacity="0.86"></path><path d="M 0 675 Q 600 -100 1200 400 Q 1800 900 2400 675" opacity="0.49"></path><path d="M 0 648 Q 600 -100 1200 400 Q 1800 900 2400 648" opacity="0.86"></path><path d="M 0 621 Q 600 -100 1200 400 Q 1800 900 2400 621" opacity="0.73"></path><path d="M 0 594 Q 600 -100 1200 400 Q 1800 900 2400 594" opacity="0.07"></path><path d="M 0 567 Q 600 -100 1200 400 Q 1800 900 2400 567" opacity="0.48"></path><path d="M 0 540 Q 600 -100 1200 400 Q 1800 900 2400 540" opacity="0.21"></path><path d="M 0 513 Q 600 -100 1200 400 Q 1800 900 2400 513" opacity="0.18"></path><path d="M 0 486 Q 600 -100 1200 400 Q 1800 900 2400 486" opacity="0.94"></path><path d="M 0 459 Q 600 -100 1200 400 Q 1800 900 2400 459" opacity="0.74"></path><path d="M 0 432 Q 600 -100 1200 400 Q 1800 900 2400 432" opacity="0.14"></path><path d="M 0 405 Q 600 -100 1200 400 Q 1800 900 2400 405" opacity="0.60"></path><path d="M 0 378 Q 600 -100 1200 400 Q 1800 900 2400 378" opacity="0.54"></path><path d="M 0 351 Q 600 -100 1200 400 Q 1800 900 2400 351" opacity="0.71"></path><path d="M 0 324 Q 600 -100 1200 400 Q 1800 900 2400 324" opacity="0.51"></path><path d="M 0 297 Q 600 -100 1200 400 Q 1800 900 2400 297" opacity="0.58"></path><path d="M 0 270 Q 600 -100 1200 400 Q 1800 900 2400 270" opacity="0.93"></path><path d="M 0 243 Q 600 -100 1200 400 Q 1800 900 2400 243" opacity="0.07"></path><path d="M 0 216 Q 600 -100 1200 400 Q 1800 900 2400 216" opacity="0.39"></path><path d="M 0 189 Q 600 -100 1200 400 Q 1800 900 2400 189" opacity="0.73"></path><path d="M 0 162 Q 600 -100 1200 400 Q 1800 900 2400 162" opacity="0.75"></path><path d="M 0 135 Q 600 -100 1200 400 Q 1800 900 2400 135" opacity="0.90"></path><path d="M 0 108 Q 600 -100 1200 400 Q 1800 900 2400 108" opacity="0.90"></path><path d="M 0 81 Q 600 -100 1200 400 Q 1800 900 2400 81" opacity="0.39"></path><path d="M 0 54 Q 600 -100 1200 400 Q 1800 900 2400 54" opacity="0.09"></path></g></svg>